<?xml version="1.0" encoding="UTF-8"?>
<svg xmlns="http://www.w3.org/2000/svg" xmlns:xlink="http://www.w3.org/1999/xlink" width="612pt" height="792pt" viewBox="0 0 612 792" version="1.1">
<g id="surface1">
<path style=" stroke:none;fill-rule:nonzero;fill:rgb(17.999268%,18.798828%,57.299805%);fill-opacity:1;" d="M 306.007813 386.605469 C 304.992188 378.730469 297.785156 373.167969 289.914063 374.183594 C 282.039063 375.195313 276.476563 382.402344 277.492188 390.273438 C 278.507813 398.148438 285.710938 403.710938 293.585938 402.695313 C 301.460938 401.683594 307.019531 394.476563 306.007813 386.605469 "/>
<path style=" stroke:none;fill-rule:nonzero;fill:rgb(17.999268%,18.798828%,57.299805%);fill-opacity:1;" d="M 490.242188 362.875 C 476.125 253.25 375.8125 175.828125 266.1875 189.945313 C 156.5625 204.066406 79.136719 304.378906 93.253906 414.003906 C 107.371094 523.632813 207.6875 601.046875 317.3125 586.929688 C 426.9375 572.8125 504.363281 472.507813 490.242188 362.875 Z M 465.359375 422.664063 C 458.648438 421.765625 452.484375 426.46875 451.578125 433.175781 C 450.789063 439.070313 454.328125 444.550781 459.753906 446.402344 C 458.628906 449.664063 457.394531 452.878906 456.085938 456.058594 C 449.34375 453.113281 419.089844 439.828125 401.8125 430.847656 C 382.546875 420.820313 361.683594 407.910156 320.066406 397.855469 C 319.597656 399.269531 319.019531 400.636719 318.351563 401.953125 C 354.765625 424.476563 378.613281 430.234375 399.292969 436.890625 C 417.824219 442.855469 448.535156 455.023438 455.371094 457.753906 C 454.078125 460.792969 452.71875 463.800781 451.265625 466.757813 C 451.039063 466.648438 450.820313 466.53125 450.585938 466.433594 C 444.339844 463.824219 437.164063 466.773438 434.554688 473.019531 C 432.269531 478.496094 434.257813 484.691406 438.996094 487.890625 C 437.066406 490.742188 435.050781 493.53125 432.960938 496.269531 C 427.160156 491.640625 401.429688 471.019531 387.085938 457.886719 C 371.070313 443.21875 354.257813 425.34375 316.652344 404.855469 C 315.839844 406.09375 314.933594 407.269531 313.941406 408.371094 C 343.285156 439.558594 364.835938 451.292969 383.089844 463.070313 C 399.421875 473.613281 425.882813 493.277344 431.835938 497.722656 C 429.804688 500.324219 427.714844 502.875 425.542969 505.359375 C 425.359375 505.203125 425.183594 505.035156 424.984375 504.886719 C 419.628906 500.75 411.933594 501.742188 407.796875 507.097656 C 404.171875 511.804688 404.488281 518.308594 408.253906 522.625 C 405.65625 524.882813 402.988281 527.058594 400.261719 529.164063 C 395.890625 523.242188 376.335938 496.613281 365.863281 480.195313 C 354.191406 461.882813 342.578125 440.265625 311.5625 410.75 C 310.457031 411.730469 309.28125 412.636719 308.03125 413.449219 C 328.304688 451.15625 346.078125 468.070313 360.660156 484.171875 C 373.726563 498.601563 394.234375 524.492188 398.796875 530.277344 C 396.164063 532.265625 393.484375 534.191406 390.742188 536.035156 C 390.601563 535.824219 390.464844 535.609375 390.308594 535.402344 C 386.199219 530.019531 378.515625 528.988281 373.132813 533.089844 C 368.398438 536.703125 367.03125 543.089844 369.566406 548.234375 C 366.480469 549.738281 363.339844 551.148438 360.148438 552.476563 C 357.476563 545.667969 345.460938 514.839844 339.589844 496.253906 C 333.054688 475.539063 327.433594 451.65625 305.109375 415.117188 C 303.800781 415.773438 302.425781 416.339844 301.003906 416.804688 C 310.824219 458.480469 323.617188 479.417969 333.535156 498.742188 C 342.429688 516.078125 355.554688 546.4375 358.441406 553.167969 C 355.394531 554.398438 352.308594 555.5625 349.171875 556.632813 C 349.085938 556.386719 349.011719 556.144531 348.910156 555.902344 C 346.339844 549.644531 339.179688 546.65625 332.917969 549.226563 C 327.433594 551.484375 324.457031 557.269531 325.546875 562.878906 C 322.1875 563.527344 318.789063 564.082031 315.355469 564.542969 C 314.523438 557.152344 310.910156 524.382813 310.058594 504.960938 C 309.105469 483.261719 309.855469 458.734375 297.746094 417.660156 C 297.027344 417.804688 296.300781 417.9375 295.558594 418.03125 C 294.820313 418.128906 294.082031 418.1875 293.347656 418.226563 C 292.046875 461.027344 298.984375 484.566406 303.5625 505.800781 C 307.65625 524.800781 312.464844 557.425781 313.53125 564.777344 C 310.234375 565.183594 306.949219 565.5 303.679688 565.722656 C 303.660156 565.480469 303.652344 565.238281 303.621094 564.992188 C 302.753906 558.277344 296.613281 553.539063 289.902344 554.402344 C 284.003906 555.164063 279.628906 560 279.242188 565.71875 C 275.792969 565.476563 272.367188 565.128906 268.964844 564.691406 C 270.0625 557.417969 275.066406 524.742188 279.273438 505.730469 C 283.96875 484.523438 291.042969 461.027344 289.980469 418.222656 C 288.484375 418.136719 287.019531 417.9375 285.578125 417.632813 C 273.25 458.636719 273.859375 483.164063 272.785156 504.855469 C 271.820313 524.304688 268.007813 557.136719 267.144531 564.445313 C 263.863281 563.988281 260.605469 563.453125 257.378906 562.816406 C 257.429688 562.5625 257.484375 562.3125 257.519531 562.050781 C 258.421875 555.339844 253.71875 549.175781 247.007813 548.269531 C 241.117188 547.480469 235.640625 551.019531 233.785156 556.441406 C 230.523438 555.3125 227.308594 554.085938 224.132813 552.773438 C 227.074219 546.03125 240.359375 515.78125 249.34375 498.503906 C 259.367188 479.238281 272.277344 458.375 282.332031 416.757813 C 280.921875 416.289063 279.550781 415.710938 278.234375 415.039063 C 255.710938 451.453125 249.953125 475.304688 243.300781 495.980469 C 237.335938 514.515625 225.167969 545.21875 222.4375 552.0625 C 219.394531 550.769531 216.386719 549.40625 213.429688 547.953125 C 213.539063 547.726563 213.65625 547.507813 213.753906 547.273438 C 216.359375 541.027344 213.410156 533.855469 207.164063 531.242188 C 201.6875 528.960938 195.496094 530.949219 192.296875 535.6875 C 189.445313 533.757813 186.65625 531.742188 183.921875 529.652344 C 188.546875 523.855469 209.171875 498.121094 222.304688 483.777344 C 236.972656 467.761719 254.84375 450.949219 275.328125 413.34375 C 274.09375 412.527344 272.917969 411.621094 271.816406 410.632813 C 240.632813 439.976563 228.894531 461.527344 217.117188 479.777344 C 206.574219 496.113281 186.90625 522.578125 182.464844 528.523438 C 179.863281 526.496094 177.308594 524.402344 174.824219 522.234375 C 174.984375 522.050781 175.148438 521.871094 175.300781 521.675781 C 179.4375 516.316406 178.445313 508.625 173.085938 504.484375 C 168.382813 500.859375 161.878906 501.183594 157.558594 504.941406 C 155.304688 502.347656 153.128906 499.679688 151.019531 496.949219 C 156.9375 492.585938 183.570313 473.023438 199.992188 462.554688 C 218.308594 450.878906 239.921875 439.269531 269.4375 408.253906 C 268.457031 407.148438 267.550781 405.972656 266.738281 404.722656 C 229.03125 424.996094 212.117188 442.769531 196.019531 457.351563 C 181.585938 470.421875 155.683594 490.933594 149.90625 495.484375 C 147.921875 492.855469 145.992188 490.179688 144.148438 487.433594 C 144.359375 487.289063 144.578125 487.152344 144.785156 486.996094 C 150.164063 482.890625 151.199219 475.203125 147.09375 469.820313 C 143.480469 465.089844 137.09375 463.722656 131.945313 466.257813 C 130.445313 463.171875 129.035156 460.027344 127.710938 456.839844 C 134.503906 454.171875 165.34375 442.152344 183.9375 436.28125 C 204.648438 429.742188 228.53125 424.121094 265.070313 401.804688 C 264.410156 400.488281 263.847656 399.117188 263.386719 397.691406 C 221.710938 407.515625 200.769531 420.308594 181.449219 430.226563 C 164.105469 439.121094 133.738281 452.25 127.015625 455.136719 C 125.785156 452.085938 124.621094 448.996094 123.550781 445.859375 C 123.796875 445.777344 124.039063 445.699219 124.28125 445.601563 C 130.542969 443.027344 133.53125 435.867188 130.960938 429.609375 C 128.703125 424.117188 122.914063 421.144531 117.304688 422.234375 C 116.65625 418.875 116.101563 415.480469 115.640625 412.046875 C 123.015625 411.214844 155.804688 407.605469 175.230469 406.746094 C 196.925781 405.792969 221.453125 406.542969 262.527344 394.441406 C 262.382813 393.71875 262.25 392.992188 262.15625 392.25 C 262.058594 391.507813 262.003906 390.769531 261.964844 390.035156 C 219.160156 388.734375 195.625 395.675781 174.390625 400.253906 C 155.382813 404.347656 122.75 409.15625 115.40625 410.222656 C 115 406.925781 114.683594 403.640625 114.460938 400.367188 C 114.703125 400.351563 114.949219 400.34375 115.195313 400.308594 C 121.90625 399.445313 126.644531 393.304688 125.78125 386.589844 C 125.023438 380.691406 120.183594 376.316406 114.464844 375.933594 C 114.707031 372.484375 115.054688 369.058594 115.492188 365.65625 C 122.757813 366.753906 155.441406 371.757813 174.460938 375.96875 C 195.664063 380.660156 219.160156 387.730469 261.964844 386.671875 C 262.054688 385.179688 262.253906 383.707031 262.554688 382.269531 C 221.554688 369.9375 197.027344 370.550781 175.335938 369.476563 C 155.882813 368.511719 123.039063 364.699219 115.738281 363.835938 C 116.195313 360.554688 116.730469 357.296875 117.367188 354.066406 C 117.621094 354.117188 117.875 354.175781 118.136719 354.210938 C 124.84375 355.113281 131.011719 350.40625 131.914063 343.699219 C 132.707031 337.804688 129.167969 332.328125 123.746094 330.476563 C 124.871094 327.214844 126.101563 324 127.410156 320.820313 C 134.152344 323.761719 164.40625 337.046875 181.683594 346.035156 C 200.953125 356.058594 221.8125 368.96875 263.429688 379.023438 C 263.902344 377.609375 264.476563 376.242188 265.148438 374.925781 C 228.734375 352.402344 204.882813 346.644531 184.207031 339.992188 C 165.675781 334.023438 134.964844 321.855469 128.125 319.128906 C 129.417969 316.085938 130.78125 313.078125 132.234375 310.117188 C 132.460938 310.230469 132.679688 310.34375 132.910156 310.441406 C 139.15625 313.050781 146.332031 310.101563 148.941406 303.855469 C 151.226563 298.378906 149.238281 292.1875 144.503906 288.988281 C 146.429688 286.136719 148.449219 283.347656 150.535156 280.609375 C 156.335938 285.238281 182.070313 305.859375 196.410156 318.992188 C 212.429688 333.660156 229.242188 351.535156 266.84375 372.019531 C 267.660156 370.785156 268.566406 369.609375 269.558594 368.507813 C 240.210938 337.320313 218.660156 325.585938 200.410156 313.808594 C 184.074219 303.265625 157.613281 283.601563 151.664063 279.15625 C 153.691406 276.554688 155.785156 274.003906 157.953125 271.515625 C 158.140625 271.675781 158.316406 271.839844 158.511719 271.988281 C 163.867188 276.125 171.5625 275.132813 175.699219 269.777344 C 179.328125 265.070313 179.003906 258.566406 175.246094 254.253906 C 177.839844 251.996094 180.511719 249.820313 183.238281 247.714844 C 187.605469 253.632813 207.164063 280.261719 217.632813 296.683594 C 229.308594 314.996094 240.921875 336.609375 271.9375 366.128906 C 273.039063 365.148438 274.21875 364.242188 275.464844 363.429688 C 255.191406 325.722656 237.417969 308.808594 222.839844 292.710938 C 209.773438 278.277344 189.261719 252.382813 184.703125 246.601563 C 187.332031 244.613281 190.011719 242.683594 192.757813 240.839844 C 192.898438 241.054688 193.03125 241.269531 193.1875 241.472656 C 197.292969 246.855469 204.984375 247.886719 210.363281 243.785156 C 215.097656 240.171875 216.464844 233.785156 213.929688 228.640625 C 217.015625 227.136719 220.160156 225.730469 223.351563 224.402344 C 226.019531 231.203125 238.039063 262.035156 243.90625 280.628906 C 250.441406 301.339844 256.066406 325.222656 278.386719 361.761719 C 279.699219 361.105469 281.070313 360.539063 282.496094 360.078125 C 272.671875 318.398438 259.878906 297.460938 249.964844 278.136719 C 241.070313 260.796875 227.941406 230.433594 225.050781 223.710938 C 228.101563 222.476563 231.191406 221.3125 234.328125 220.246094 C 234.410156 220.488281 234.484375 220.730469 234.585938 220.972656 C 237.15625 227.230469 244.316406 230.222656 250.578125 227.648438 C 256.066406 225.394531 259.039063 219.605469 257.953125 213.996094 C 261.3125 213.347656 264.710938 212.796875 268.140625 212.332031 C 268.972656 219.714844 272.585938 252.496094 273.441406 271.917969 C 274.394531 293.617188 273.644531 318.144531 285.746094 359.222656 C 286.46875 359.074219 287.195313 358.941406 287.9375 358.847656 C 288.679688 358.753906 289.414063 358.691406 290.152344 358.652344 C 291.453125 315.851563 284.511719 292.316406 279.9375 271.082031 C 275.84375 252.074219 271.03125 219.445313 269.964844 212.097656 C 273.261719 211.691406 276.546875 211.378906 279.820313 211.152344 C 279.835938 211.394531 279.84375 211.636719 279.878906 211.882813 C 280.742188 218.597656 286.882813 223.335938 293.59375 222.472656 C 299.492188 221.710938 303.863281 216.875 304.253906 211.160156 C 307.703125 211.398438 311.128906 211.746094 314.53125 212.183594 C 313.4375 219.460938 308.429688 252.136719 304.222656 271.148438 C 299.527344 292.355469 292.453125 315.851563 293.515625 358.65625 C 295.011719 358.746094 296.480469 358.941406 297.917969 359.246094 C 310.25 318.242188 309.640625 293.714844 310.714844 272.019531 C 311.679688 252.570313 315.488281 219.730469 316.355469 212.433594 C 319.632813 212.890625 322.894531 213.421875 326.117188 214.058594 C 326.066406 214.3125 326.011719 214.5625 325.976563 214.824219 C 325.074219 221.535156 329.78125 227.699219 336.484375 228.605469 C 342.382813 229.394531 347.855469 225.859375 349.710938 220.4375 C 352.972656 221.5625 356.1875 222.792969 359.367188 224.105469 C 356.421875 230.851563 343.140625 261.097656 334.152344 278.375 C 324.132813 297.640625 311.222656 318.503906 301.164063 360.121094 C 302.578125 360.59375 303.945313 361.167969 305.261719 361.839844 C 327.785156 325.425781 333.546875 301.574219 340.195313 280.894531 C 346.160156 262.363281 358.335938 231.65625 361.0625 224.816406 C 364.101563 226.109375 367.109375 227.472656 370.066406 228.925781 C 369.957031 229.148438 369.84375 229.367188 369.742188 229.597656 C 367.136719 235.847656 370.085938 243.019531 376.328125 245.632813 C 381.808594 247.914063 388 245.929688 391.199219 241.191406 C 394.054688 243.121094 396.84375 245.136719 399.578125 247.226563 C 394.949219 253.027344 374.328125 278.757813 361.195313 293.101563 C 346.523438 309.117188 328.652344 325.933594 308.167969 363.535156 C 309.402344 364.351563 310.578125 365.257813 311.683594 366.246094 C 342.863281 336.902344 354.605469 315.351563 366.382813 297.097656 C 376.925781 280.765625 396.59375 254.300781 401.03125 248.355469 C 403.632813 250.382813 406.1875 252.472656 408.671875 254.644531 C 408.511719 254.828125 408.347656 255.003906 408.195313 255.199219 C 404.0625 260.558594 405.054688 268.25 410.40625 272.390625 C 415.113281 276.015625 421.617188 275.695313 425.9375 271.9375 C 428.191406 274.53125 430.367188 277.199219 432.476563 279.929688 C 426.554688 284.300781 399.925781 303.855469 383.507813 314.324219 C 365.1875 325.996094 343.574219 337.609375 314.058594 368.628906 C 315.039063 369.730469 315.945313 370.910156 316.757813 372.15625 C 354.46875 351.882813 371.378906 334.109375 387.480469 319.527344 C 401.910156 306.460938 427.8125 285.945313 433.589844 281.394531 C 435.574219 284.019531 437.503906 286.699219 439.347656 289.445313 C 439.136719 289.585938 438.921875 289.722656 438.714844 289.878906 C 433.328125 293.984375 432.300781 301.671875 436.398438 307.054688 C 440.015625 311.785156 446.398438 313.152344 451.550781 310.617188 C 453.050781 313.703125 454.460938 316.847656 455.789063 320.039063 C 448.984375 322.710938 418.152344 334.726563 399.5625 340.597656 C 378.851563 347.132813 354.96875 352.757813 318.429688 375.078125 C 319.085938 376.390625 319.648438 377.761719 320.109375 379.1875 C 361.789063 369.363281 382.726563 356.570313 402.054688 346.652344 C 419.394531 337.757813 449.765625 324.628906 456.480469 321.742188 C 457.714844 324.792969 458.878906 327.878906 459.941406 331.015625 C 459.699219 331.101563 459.457031 331.175781 459.21875 331.273438 C 452.949219 333.847656 449.96875 341.003906 452.535156 347.265625 C 454.796875 352.753906 460.578125 355.730469 466.191406 354.640625 C 466.839844 358 467.394531 361.398438 467.855469 364.832031 C 460.476563 365.664063 427.691406 369.273438 408.269531 370.132813 C 386.570313 371.082031 362.042969 370.335938 320.96875 382.4375 C 321.113281 383.160156 321.246094 383.886719 321.34375 384.628906 C 321.4375 385.367188 321.496094 386.105469 321.535156 386.839844 C 364.335938 388.140625 387.871094 381.203125 409.109375 376.625 C 428.113281 372.527344 460.75 367.722656 468.09375 366.65625 C 468.496094 369.949219 468.8125 373.234375 469.035156 376.507813 C 468.792969 376.523438 468.550781 376.53125 468.304688 376.566406 C 461.589844 377.429688 456.851563 383.570313 457.714844 390.285156 C 458.476563 396.183594 463.3125 400.558594 469.03125 400.941406 C 468.789063 404.394531 468.441406 407.820313 468.007813 411.222656 C 460.734375 410.128906 428.054688 405.121094 409.039063 400.914063 C 387.832031 396.21875 364.335938 389.144531 321.53125 390.203125 C 321.445313 391.699219 321.246094 393.167969 320.941406 394.605469 C 361.941406 406.941406 386.472656 406.328125 408.167969 407.402344 C 427.617188 408.367188 460.460938 412.179688 467.757813 413.042969 C 467.300781 416.324219 466.769531 419.582031 466.132813 422.808594 C 465.878906 422.757813 465.621094 422.699219 465.359375 422.664063 "/>
</g>
</svg>
